<svg width="210" height="48" viewBox="0 0 210 48" fill="none" xmlns="http://www.w3.org/2000/svg">
<path d="M71.0273 0C73.6883 1.4318e-05 75.6328 1.87293 75.6328 4.43555V43.5322C75.6326 46.0946 73.6882 47.9668 71.0273 47.9668L4.60547 48C1.94453 48 0 46.1271 0 43.5645V4.46777C0.000202853 1.90537 1.94467 0.0332262 4.60547 0.0332031L71.0273 0ZM184.652 0C200.038 0 210 9.26513 210 23.6553V24.3447C210 38.7349 200.038 48 184.652 48H105.915C90.5293 47.9999 80.5684 38.7348 80.5684 24.3447V23.6553C80.5684 9.29806 90.5293 0.00010143 105.915 0H184.652ZM105.915 1.21582C91.2459 1.21592 81.7961 10.0533 81.7959 23.6875V24.3779C81.7959 38.0452 91.2799 46.8505 105.949 46.8506H184.687C199.356 46.8506 208.806 38.0124 208.806 24.3779V23.6875C208.805 10.0204 199.322 1.21582 184.652 1.21582H105.915ZM53.7656 10.415C52.6398 14.0619 47.4195 21.2239 39.5049 25.1992V33.1494H56.7676V36.5664H62.123V33.1494H66.7969V28.7471H62.123V22.2754H56.7676V28.7471H44.1445V27.8271C48.8183 25.5602 56.4945 18.1686 60.793 10.415H53.7656ZM23.0615 9.88867C12.9978 9.88873 9.65495 14.949 9.99609 20.9941H16.1709C16.0003 15.9017 19.241 14.6201 23.2324 14.6201C27.3944 14.6202 29.9531 16.066 29.9531 19.0557C29.953 21.651 28.5881 22.9325 23.0957 24.4766C20.4629 25.2055 14.9414 26.5458 10.9102 27.5244L10.4736 27.6309V35.8115H35.9229V31.1455L15.3516 31.0469V30.4229C19.7183 29.6672 24.1197 28.8464 28.5547 27.5322C34.8655 25.6596 36.2304 22.4724 36.2305 18.6943C36.2305 13.7991 32.6819 9.88867 23.0615 9.88867ZM100.094 14C105.917 14 110.082 15.6394 110.082 20.4199H105.812C105.635 17.8589 102.882 17.3125 99.7764 17.3125C96.3885 17.3125 94.4826 18.0292 94.4824 19.8047C94.4824 21.8193 96.6001 21.9216 103.341 22.6045C108.988 23.1849 111 25.0633 111 28.6143C111 33.1557 106.517 35 100.376 35C94.3762 34.9999 90 33.3604 90 28.5459H94.4473C94.6594 31.141 97.5536 31.6875 100.871 31.6875C104.083 31.6875 106.447 31.1414 106.447 29.0928C106.447 26.805 104.612 26.6685 98.7178 26.1904C92.5772 25.6783 90.2121 24.0733 90.2119 20.3857C90.2119 16.0151 94.3409 14 100.094 14ZM119.552 22.5801H131.448V14H136V35H131.448V26.6602H119.552V35H115V14H119.552V22.5801ZM158 17.5293H144.235V22.7178H157.647V26.2471H144.235V31.4707H158V35H140V14H158V17.5293ZM166.226 30.9502H178V35H162V14H166.226V30.9502ZM199 18.0498H187.286V23H197.8V26.8701H187.286V35H183V14H199V18.0498Z" fill="white"/>
</svg>
